PathFileType	4	(X/Y/Z)	RBDS026\RBDS026runT35.trc
DataRate	CameraRate	NumFrames	NumMarkers	Units	OrigDataRate	OrigDataStartFrame	OrigNumFrames
150.000000	150.000000	4	33	mm	150.000000	3937	4500
Frame#	Time	L.ASIS			L.Heel.Bottom			L.Heel.Lateral			L.Heel.Top			L.Iliac.Crest			L.MT1			L.MT5			L.PSIS			L.Shank.Bottom.Lateral			L.Shank.Bottom.Medial			L.Shank.Top.Lateral			L.Shank.Top.Medial			L.Thigh.Bottom.Lateral			L.Thigh.Bottom.Medial			L.Thigh.Top.Lateral			L.Thigh.Top.Medial			R.ASIS			R.ASY			R.Heel.Bottom			R.Heel.Lateral			R.Heel.Top			R.Iliac.Crest			R.MT1			R.MT5			R.PSIS			R.Shank.Bottom.Lateral			R.Shank.Bottom.Medial			R.Shank.Top.Lateral			R.Shank.Top.Medial			R.Thigh.Bottom.Lateral			R.Thigh.Bottom.Medial			R.Thigh.Top.Lateral			R.Thigh.Top.Medial			
		X1	Y1	Z1	X2	Y2	Z2	X3	Y3	Z3	X4	Y4	Z4	X5	Y5	Z5	X6	Y6	Z6	X7	Y7	Z7	X8	Y8	Z8	X9	Y9	Z9	X10	Y10	Z10	X11	Y11	Z11	X12	Y12	Z12	X13	Y13	Z13	X14	Y14	Z14	X15	Y15	Z15	X16	Y16	Z16	X17	Y17	Z17	X18	Y18	Z18	X19	Y19	Z19	X20	Y20	Z20	X21	Y21	Z21	X22	Y22	Z22	X23	Y23	Z23	X24	Y24	Z24	X25	Y25	Z25	X26	Y26	Z26	X27	Y27	Z27	X28	Y28	Z28	X29	Y29	Z29	X30	Y30	Z30	X31	Y31	Z31	X32	Y32	Z32	X33	Y33	Z33	

3938	26.24666666666667	2273.332591354666	1075.200039525952	939.8452299897899	2261.885114652794	90.39003695406298	1051.671169720532	2284.959255643583	102.9934572944672	996.044378135228	2270.607270450649	136.7133380651405	1043.150924879888	2190.787654119386	1168.636713779211	889.4716338013822	2487.170697937701	101.0195768019845	1034.11537989763	2426.298721286914	79.15839427943681	940.5078479729134	2111.679669720429	1134.618398703726	1001.336435476972	2327.285294008727	228.1263913363286	956.1338174899306	2288.23621778967	236.1817106640504	987.7348210029168	2323.98632960359	303.8563365676459	927.4785090791885	2282.73272162979	315.4710070519336	958.8025611457707	2309.945886251004	690.8738230474554	880.5359597188786	2249.753527840618	667.9935490998882	913.9741124895532	2261.430777699657	787.8778687337086	860.9593693570264	2206.37953617351	766.9967235204597	897.0746243795193	2274.463049995668	1055.780986434946	1165.472315883062	1689.727560601829	177.5619993067656	1107.249152073247	1595.276853815841	326.7549568131959	1032.017372082596	1602.523190736146	309.4698959454726	1087.674541874267	1637.285090615564	335.1978775906509	1050.547187468639	2239.991606943491	1139.419291018287	1204.396647597659	1685.478074787215	120.8896443306762	1057.280861922218	1623.552204135498	154.0153266478548	1142.408366205945	2119.392246256769	1132.369064793684	1104.200299233561	1702.53678628858	337.3174058280401	1141.037641930896	1682.061994656887	364.6460409825934	1097.542110119106	1742.886793170949	405.0022728110073	1162.010054273762	1721.999510471149	430.6031443173552	1119.756253971993	2022.562489935714	681.1997715027552	1216.283629378066	1969.805401691138	708.290785415013	1175.055056922639	2065.241882137494	782.3035971630036	1227.717424710639	2014.06811258881	807.4608364627067	1190.064096551508	
3939	26.25333333333333	2273.582568287657	1074.734107373109	939.9844212578222	2286.53008592689	80.82170928288562	1053.473678652323	2308.206915346569	94.84795297602011	997.5668044707326	2291.843001160484	127.5454302681192	1044.633709982511	2191.393815234722	1167.552661550335	889.1516187684261	2510.165840243553	107.2007454047982	1033.93049340849	2450.40447330294	80.74299040899541	940.9412742078488	2112.158221424342	1134.392346579108	1000.510104627507	2341.883515757759	223.2726073717577	956.932975908293	2302.903302406063	229.0877019942463	989.0290914331001	2334.210158354284	298.59629126874	928.3351582659272	2292.655768552972	307.8749796749036	960.0105299003935	2304.986538322248	687.6125196132734	881.2525247743432	2244.812198985786	665.9313588339899	915.4935011723558	2257.672726356789	785.2305747712187	861.4326545069488	2202.938544463552	765.5230807759516	898.5413452911339	2274.558590723585	1057.077263242245	1166.274168054602	1678.78106452508	188.4560999461969	1106.047884675323	1587.679220720679	340.0243870023565	1031.356491856775	1594.815015380356	322.6580346484675	1087.010594957525	1630.001592427152	347.3671482009723	1049.581967564391	2238.461513775321	1140.785260988047	1204.310909595333	1672.87595524079	131.9012142490832	1056.372595559998	1612.272669860848	166.7208925361579	1141.765519479477	2119.511252243567	1132.763900882933	1103.500828877871	1696.180736153226	347.1157100937473	1139.9688832059	1676.588618478667	375.4515044404196	1096.725636163412	1739.044116983027	413.1286608096885	1161.178508208945	1719.017623678438	439.7215060390496	1119.113389422448	2025.096382810515	680.5967365756187	1216.363341815567	1972.173486241904	707.519784542484	1175.260247878562	2067.355052486171	781.8628027621844	1228.009600359788	2015.821400136034	806.9214027648451	1190.774237097532	
3940	26.26	2273.687615940919	1073.731607364687	940.076841939165	2309.649588114293	72.52456835844599	1054.792211389411	2330.040233720186	87.78338196609781	998.6678633980138	2311.646181331036	119.435546421302	1045.628243969627	2191.925936872115	1165.819899693213	888.7537431298255	2530.775332872408	114.0814424842477	1033.764965398324	2472.59834120019	83.07434197099853	941.3011061308229	2112.395431797431	1133.483813030726	999.6438516089323	2355.268798362416	219.1021659029726	957.4584488310456	2316.411001619012	222.7608686454947	989.9767826463487	2343.514951587847	293.8479777918324	928.9890686319213	2301.718058635902	300.8788255519831	960.9397081626773	2300.074993711202	684.1124030515957	881.9680531363666	2239.956030472358	663.6127110217831	917.0396901180258	2253.937100269172	782.3150694119198	861.9186767757853	2199.528529903384	763.7440712684736	899.9858307182874	2274.595892906343	1057.950604281113	1167.113882496329	1668.804610053089	199.5613191250403	1104.430063034182	1580.351808212376	353.3571075940781	1031.284691807824	1587.71297182153	335.7588202201788	1086.805879420263	1623.004766821894	359.6335573538094	1048.990719623197	2236.703154172299	1141.59449689186	1204.219380838613	1661.028278991957	143.3883294576834	1054.801940599531	1602.216020164568	179.4117021894232	1140.971791242545	2119.403430919986	1132.489035360813	1102.726906091818	1690.530337105069	356.9373686509675	1138.95112575485	1671.826214631369	386.3725966193728	1096.05774142974	1735.988263842759	421.0825921405288	1160.452689368819	1716.811052891008	448.756918528888	1118.68490896822	2028.210597212731	679.2378670958078	1216.571137990844	1975.077247921242	705.9020521019373	1175.596672043901	2069.872953510273	780.7416070969258	1228.408976595819	2017.918408746193	805.6206363032671	1191.616544081297	
3941	26.26666666666667	2273.651584792535	1072.236061268858	940.1246403693301	2330.815183746014	65.35259003412911	1055.629840278306	2350.074588345517	81.65226760319445	999.3480650027727	2329.667118378569	112.276291907036	1046.134916255606	2192.379700836045	1163.520724328173	888.3166405003778	2548.810493105594	121.2331953393044	1033.660721084643	2492.610178998624	85.80713024814895	941.6173591307362	2112.394275959762	1131.921978927185	998.8055259151121	2367.264587778638	215.5067316819969	957.7148585612623	2328.55499959456	217.1329164819033	990.5767234671613	2351.78497017328	289.5720275101938	929.4310372197668	2309.79612132302	294.4842831925988	961.5941395268275	2295.38566233091	680.4770092478868	882.6939770521119	2235.333902170794	661.097429251461	918.5510261705653	2250.382714865949	779.2305816956574	862.4430002124182	2196.27061260998	761.7195748942886	901.3674877883817	2274.597142741928	1058.360211260868	1167.951048314114	1659.772196886594	210.7489686061773	1102.503804967729	1573.659469690705	366.8167905564438	1031.700126575621	1581.425197714695	348.8025497911935	1086.982461179584	1616.646685812534	371.9866465618361	1048.748411723916	2234.782510695516	1141.849905016034	1204.113881420889	1649.956800983989	155.2150907607427	1052.682462388667	1593.250950951652	192.0257135352866	1140.001274232009	2119.104679770832	1131.538694932434	1101.930523087193	1685.711213223979	366.6867018045055	1138.042905933389	1667.914688184302	397.2853187670208	1095.576927542241	1733.782148745225	428.7921163371313	1159.886373865501	1715.462039337383	457.6089554750739	1118.504872457495	2031.822207413454	677.1724246348464	1216.913767555229	1978.452773948002	703.4826111680881	1176.039486802516	2072.727468973867	778.9804083478905	1228.89241770903	2020.32304417762	803.5914721345129	1192.522783350783	
